{"title":"C3: Cube x Cursed x Curious (eng subbed)","uid":9400856,"size":566948500,"categoryP":"video","categoryS":"tv_shows","magnet":"?xt=urn:btih:285f54ad619d237884aa6420f5a4f4bcd7a04cb6&amp;dn=C3%3A+Cube+x+Cursed+x+Curious+%28eng+subbed%29&amp;tr=udp%3A%2F%2Ftracker.openbittorrent.com%3A80&amp;tr=udp%3A%2F%2Fopen.demonii.com%3A1337&amp;tr=udp%3A%2F%2Ftracker.coppersurfer.tk%3A6969&amp;tr=udp%3A%2F%2Fexodus.desync.com%3A6969","seeders":3,"leechers":0,"uploader":"p7trick","files":-1,"time":1388073218,"description":"downloaded from anime1\n\nC3: Cube x Cursed x Curious  ENGLISH SUBBED eps 1-12\n\n_________________________________________________________\n\nFormat                                   : MPEG-4\nFormat profile                           : Base Media\nCodec ID                                 : isom\nFile size                                : 39.9 MiB\nDuration                                 : 23mn 34s\nOverall bit rate                         : 237 Kbps\nMovie name                               : [Gimme] C3 - Cube x Cursed x Curious - 06 (H.264 1280x720 AAC)\nTagged date                              : UTC 2013-04-04 17:30:50\nWriting application                      : Lavf55.0.100\n\nVideo\nID                                       : 1\nFormat                                   : AVC\nFormat/Info                              : Advanced Video Codec\nFormat profile                           : &lt;a class=&quot;__cf_email__&quot; href=&quot;/cdn-cgi/l/email-protection&quot; data-cfemail=&quot;420a2b252a020e716c72&quot;&gt;[email&amp;#160;protected]&lt;/a&gt;&lt;script cf-hash='f9e31' type=&quot;text/javascript&quot;&gt;\n/* &lt;![CDATA[ */!function(){try{var t=&quot;currentScript&quot;in document?document.currentScript:function(){for(var t=document.getElementsByTagName(&quot;script&quot;),e=t.length;e--;)if(t[e].getAttribute(&quot;cf-hash&quot;))return t[e]}();if(t&amp;&amp;t.previousSibling){var e,r,n,i,c=t.previousSibling,a=c.getAttribute(&quot;data-cfemail&quot;);if(a){for(e=&quot;&quot;,r=parseInt(a.substr(0,2),16),n=2;a.length-n;n+=2)i=parseInt(a.substr(n,2),16)^r,e+=String.fromCharCode(i);e=document.createTextNode(e),c.parentNode.replaceChild(e,c)}}}catch(u){}}();/* ]]&gt; */&lt;/script&gt;\nFormat settings, CABAC                   : Yes\nFormat settings, ReFrames                : 8 frames\nCodec ID                                 : avc1\nCodec ID/Info                            : Advanced Video Coding\nDuration                                 : 23mn 34s\nBit rate                                 : 166 Kbps\nWidth                                    : 640 pixels\nHeight                                   : 360 pixels\nDisplay aspect ratio                     : 16:9\nFrame rate mode                          : Constant\nFrame rate                               : 23.976 fps\nColor space                              : YUV\nChroma subsampling                       : 4:2:0\nBit depth                                : 8 bits\nScan type                                : Progressive\nBits/(Pixel*Frame)                       : 0.030\nStream size                              : 28.0 MiB (70%)\nWriting library                          : x264 core 130 r2274 c832fe9\n\n\nAudio\nID                                       : 2\nFormat                                   : AAC\nFormat/Info                              : Advanced Audio Codec\nFormat profile                           : LC\nCodec ID                                 : 40\nDuration                                 : 23mn 34s\nBit rate mode                            : Constant\nBit rate                                 : 63.7 Kbps\nChannel count                            : 2 channels\nChannel positions                        : Front: L R\nSampling rate                            : 44.1 KHz\nCompression mode                         : Lossy\nDelay relative to video                  : 83ms\nStream size                              : 10.8 MiB (27%)\nLanguage                                 : Japanese\n\n\n_________________________________________________________\n\nSummary:\nThe story begins when a high school student named Yachi Haruaki receives a mysterious, super-heavy black cube from his father overseas. That night, Haruaki wakes up to a suspicious noise in the kitchen, and he discovers a fully naked female thief of rice crackers. The girl, Fear, is the first of several surprises that Haruaki receives.\n\n\nfor updates:\nTwitter - @p7tricktorrent\nFacebook - /p7tricktorrent\n_________________________________________________________\n\nSEED!\n\nshare ratio:\n&quot;Scumbag = 0.1:1\nLeecher = 0.999:1\nMinimum = 1:1\nGood = 3:1\nGreat = 5:1\nAwesome = 10:1\n1337 = 100:1&quot;\t\t\t\t\t","torrent":{"xt":"urn:btih:285f54ad619d237884aa6420f5a4f4bcd7a04cb6","amp;dn":"C3%3A+Cube+x+Cursed+x+Curious+%28eng+subbed%29","amp;tr":["udp%3A%2F%2Ftracker.openbittorrent.com%3A80","udp%3A%2F%2Fopen.demonii.com%3A1337","udp%3A%2F%2Ftracker.coppersurfer.tk%3A6969","udp%3A%2F%2Fexodus.desync.com%3A6969"],"infoHash":"285f54ad619d237884aa6420f5a4f4bcd7a04cb6","infoHashBuffer":{"type":"Buffer","data":[40,95,84,173,97,157,35,120,132,170,100,32,245,164,244,188,215,160,76,182]},"announce":[],"urlList":[]}}